<svg width="23" height="23" viewBox="0 0 23 23" fill="none" xmlns="http://www.w3.org/2000/svg">
<g clip-path="url(#clip0_220_178)">
<path d="M3.24828 1.14391C3.24828 0.512169 2.73611 0 2.10436 0C1.47262 0 0.960449 0.512169 0.960449 1.14391V21.8561C0.960449 22.4878 1.47262 23 2.10436 23C2.73611 23 3.24828 22.4878 3.24828 21.8561V12.8025C3.24835 12.8026 3.24851 12.8026 3.24858 12.8027L3.24828 1.14391Z" fill="black"/>
<path d="M18.4461 6.26242C18.2469 5.99467 18.2492 5.63479 18.4517 5.39145C19.533 4.09974 20.6454 3.0404 21.6956 2.19512C22.6213 1.45013 21.4144 0.906844 21.1436 0.79291C15.6334 -1.5271 10.1281 3.32775 4.62109 1.84966V13.3093C10.1364 14.7884 15.6517 9.91258 21.1669 12.2627C21.4361 12.3767 21.6819 12.3487 21.8003 12.1702C21.9188 11.9924 21.8893 11.6871 21.7244 11.3879C20.6317 9.41291 19.5389 7.73967 18.4461 6.26242Z" fill="black"/>
</g>
<defs>
<clipPath id="clip0_220_178">
<rect width="23" height="23" fill="white"/>
</clipPath>
</defs>
</svg>
